<svg width="360" height="473" viewBox="0 0 360 473" fill="none" xmlns="http://www.w3.org/2000/svg">
<path d="M63.8365 65.9596C59.9539 66.9586 61.051 70.9182 61.7684 72.0063C62.4473 73.0359 62.1813 74.6886 66.6575 75.8606C67.8693 75.8243 70.7825 75.1168 72.7408 72.5769C75.1886 69.4019 71.6437 68.6171 70.9263 67.5291C70.209 66.4411 67.7191 64.9607 63.8365 65.9596Z" fill="#007336"/>
<path d="M52.1313 65.1185C51.3962 63.0454 49.2858 63.8378 48.7262 64.2829C48.1966 64.704 47.2805 64.6392 46.8581 67.1424C46.9369 67.8029 47.4655 69.3604 48.9489 70.3068C50.8032 71.4898 51.0594 69.5144 51.619 69.0694C52.1786 68.6243 52.8663 67.1916 52.1313 65.1185Z" fill="#007336"/>
<path d="M34.8463 77.3012C34.1113 75.2281 32.0008 76.0206 31.4412 76.4656C30.9116 76.8868 29.9955 76.8219 29.5731 79.3252C29.6519 79.9856 30.1805 81.5431 31.6639 82.4895C33.5183 83.6726 33.7744 81.6971 34.334 81.2521C34.8937 80.8071 35.5814 79.3743 34.8463 77.3012Z" fill="#007336"/>
<path d="M15.2278 69.6191C14.4928 67.546 12.3824 68.3385 11.8227 68.7835C11.2931 69.2047 10.377 69.1398 9.95462 71.6431C10.0335 72.3035 10.562 73.8611 12.0455 74.8075C13.8998 75.9905 14.1559 74.0151 14.7156 73.57C15.2752 73.125 15.9629 71.6922 15.2278 69.6191Z" fill="#007336"/>
<path d="M0.337465 70.9474C-0.397585 68.8743 -2.508 69.6668 -3.06763 70.1118C-3.59724 70.533 -4.51335 70.4681 -4.93576 72.9714C-4.85691 73.6318 -4.32836 75.1894 -2.84491 76.1358C-0.990596 77.3188 -0.734451 75.3434 -0.174819 74.8983C0.384812 74.4533 1.07251 73.0205 0.337465 70.9474Z" fill="#007336"/>
<path d="M12.71 54.6449C14.8779 54.2732 14.456 52.0588 14.1127 51.4316C13.7878 50.8381 14.0076 49.9463 11.6127 49.1042C10.9484 49.0696 9.32369 49.3254 8.13869 50.6263C6.65745 52.2523 8.56052 52.8408 8.90386 53.4679C9.2472 54.0951 10.5421 55.0166 12.71 54.6449Z" fill="#007336"/>
<path d="M35.171 55.6017C37.3389 55.2301 36.917 53.0156 36.5737 52.3884C36.2488 51.7949 36.4686 50.9032 34.0737 50.0611C33.4094 50.0264 31.7847 50.2823 30.5997 51.5831C29.1184 53.2091 31.0215 53.7976 31.3649 54.4248C31.7082 55.052 33.0031 55.9734 35.171 55.6017Z" fill="#007336"/>
<path d="M45.1638 39.787C46.6073 38.1273 44.8793 36.6796 44.2165 36.4113C43.5893 36.1573 43.1952 35.3277 40.8079 36.1912C40.2717 36.5847 39.1755 37.811 39.0812 39.5681C38.9632 41.7644 40.8091 41.0158 41.4719 41.2842C42.1346 41.5526 43.7203 41.4466 45.1638 39.787Z" fill="#007336"/>
<path d="M64.557 27.0003C66.0004 25.3407 64.2724 23.8929 63.6097 23.6246C62.9825 23.3706 62.5884 22.5411 60.2011 23.4045C59.6649 23.798 58.5687 25.0243 58.4743 26.7814C58.3564 28.9778 60.2023 28.2292 60.8651 28.4975C61.5278 28.7659 63.1135 28.66 64.557 27.0003Z" fill="#007336"/>
<path d="M68.677 38.7672C70.1204 37.1075 68.3924 35.6598 67.7297 35.3914C67.1025 35.1374 66.7084 34.3079 64.3211 35.1714C63.7849 35.5649 62.6887 36.7911 62.5943 38.5482C62.4763 40.7446 64.3223 39.996 64.9851 40.2644C65.6478 40.5327 67.2335 40.4268 68.677 38.7672Z" fill="#007336"/>
<path d="M73.6745 50.0255C75.1179 48.3659 73.3899 46.9181 72.7272 46.6498C72.1 46.3958 71.7059 45.5663 69.3186 46.4297C68.7824 46.8232 67.6862 48.0495 67.5918 49.8066C67.4738 52.003 69.3198 51.2544 69.9825 51.5227C70.6453 51.7911 72.231 51.6852 73.6745 50.0255Z" fill="#007336"/>
<path d="M93.7891 61.9362C93.3884 59.7735 91.1798 60.225 90.5573 60.5767C89.9682 60.9096 89.0736 60.7018 88.2636 63.1077C88.2379 63.7724 88.5155 65.3935 89.8321 66.561C91.4778 68.0203 92.0407 66.1095 92.6633 65.7578C93.2858 65.4061 94.1898 64.099 93.7891 61.9362Z" fill="#007336"/>
<path d="M94.5242 33.5827C94.1235 31.4199 91.9149 31.8714 91.2923 32.2231C90.7032 32.556 89.8086 32.3482 88.9987 34.7541C88.9729 35.4188 89.2506 37.0399 90.5671 38.2074C92.2129 39.6667 92.7758 37.7559 93.3983 37.4042C94.0208 37.0525 94.9248 35.7454 94.5242 33.5827Z" fill="#007336"/>
<path d="M79.1692 15.8126C78.7686 13.6498 76.56 14.1013 75.9374 14.453C75.3483 14.7859 74.4537 14.5781 73.6438 16.9841C73.618 17.6487 73.8956 19.2699 75.2122 20.4373C76.8579 21.8966 77.4209 19.9859 78.0434 19.6341C78.6659 19.2824 79.5699 17.9753 79.1692 15.8126Z" fill="#007336"/>
<path d="M96.1056 18.518C95.7049 16.3553 93.4963 16.8068 92.8738 17.1585C92.2846 17.4913 91.39 17.2835 90.5801 19.6895C90.5543 20.3541 90.832 21.9753 92.1486 23.1428C93.7943 24.6021 94.3572 22.6913 94.9797 22.3396C95.6023 21.9879 96.5062 20.6808 96.1056 18.518Z" fill="#007336"/>
<path d="M108.263 37.8649C107.862 35.7022 105.653 36.1537 105.031 36.5054C104.442 36.8383 103.547 36.6305 102.737 39.0364C102.711 39.7011 102.989 41.3222 104.306 42.4897C105.951 43.949 106.514 42.0382 107.137 41.6865C107.759 41.3348 108.663 40.0277 108.263 37.8649Z" fill="#007336"/>
<path d="M346.291 408.648C343.702 411.708 346.887 414.304 348.101 414.776C349.251 415.224 349.989 416.726 354.319 415.093C355.286 414.363 357.254 412.101 357.382 408.896C357.543 404.89 354.197 406.3 352.983 405.828C351.768 405.355 348.881 405.587 346.291 408.648Z" fill="#007336"/>
<path d="M336.256 414.731C334.457 413.465 333.194 415.332 332.995 416.018C332.806 416.668 332.021 417.145 333.124 419.432C333.571 419.925 334.903 420.89 336.66 420.804C338.857 420.697 337.924 418.937 338.123 418.25C338.322 417.564 338.054 415.997 336.256 414.731Z" fill="#007336"/>
<path d="M329.2 434.666C327.402 433.4 326.138 435.267 325.939 435.954C325.751 436.603 324.966 437.08 326.069 439.367C326.515 439.86 327.847 440.825 329.605 440.739C331.802 440.632 330.868 438.872 331.067 438.185C331.267 437.499 330.999 435.932 329.2 434.666Z" fill="#007336"/>
<path d="M308.753 439.745C306.954 438.479 305.691 440.346 305.492 441.033C305.303 441.682 304.518 442.159 305.621 444.446C306.068 444.939 307.4 445.904 309.157 445.818C311.354 445.711 310.421 443.951 310.62 443.264C310.819 442.578 310.551 441.011 308.753 439.745Z" fill="#007336"/>
<path d="M297.373 449.44C295.575 448.174 294.311 450.041 294.112 450.728C293.924 451.378 293.139 451.855 294.242 454.141C294.688 454.634 296.02 455.599 297.778 455.513C299.975 455.406 299.041 453.646 299.24 452.96C299.44 452.273 299.172 450.706 297.373 449.44Z" fill="#007336"/>
<path d="M298.039 428.985C299.592 427.428 297.967 425.866 297.325 425.553C296.716 425.256 296.38 424.402 293.939 425.1C293.377 425.456 292.2 426.604 291.985 428.351C291.717 430.534 293.61 429.913 294.253 430.226C294.896 430.539 296.485 430.542 298.039 428.985Z" fill="#007336"/>
<path d="M316.916 416.776C318.469 415.219 316.845 413.656 316.202 413.343C315.593 413.047 315.257 412.192 312.816 412.89C312.254 413.246 311.077 414.395 310.862 416.141C310.594 418.324 312.487 417.704 313.13 418.017C313.773 418.33 315.362 418.333 316.916 416.776Z" fill="#007336"/>
<path d="M315.922 398.095C316.139 395.906 313.892 395.725 313.197 395.889C312.538 396.044 311.737 395.596 310.289 397.681C310.079 398.312 309.894 399.946 310.833 401.434C312.007 403.294 313.08 401.616 313.776 401.452C314.471 401.287 315.704 400.284 315.922 398.095Z" fill="#007336"/>
<path d="M324.348 376.448C324.565 374.259 322.318 374.077 321.623 374.242C320.964 374.397 320.163 373.948 318.715 376.034C318.505 376.665 318.32 378.299 319.259 379.787C320.433 381.647 321.506 379.969 322.202 379.804C322.898 379.64 324.13 378.637 324.348 376.448Z" fill="#007336"/>
<path d="M334.514 383.665C334.732 381.476 332.485 381.294 331.789 381.458C331.13 381.614 330.329 381.165 328.881 383.25C328.671 383.881 328.486 385.516 329.425 387.004C330.599 388.864 331.672 387.185 332.368 387.021C333.064 386.857 334.296 385.853 334.514 383.665Z" fill="#007336"/>
<path d="M345.102 389.959C345.32 387.77 343.073 387.588 342.377 387.753C341.718 387.908 340.917 387.46 339.469 389.545C339.259 390.176 339.074 391.81 340.013 393.298C341.187 395.158 342.26 393.48 342.956 393.315C343.652 393.151 344.884 392.148 345.102 389.959Z" fill="#007336"/>
<path d="M352.602 364.487C351.024 362.954 349.483 364.6 349.179 365.247C348.891 365.859 348.041 366.207 348.771 368.638C349.135 369.195 350.299 370.357 352.048 370.548C354.235 370.787 353.589 368.902 353.893 368.255C354.198 367.609 354.179 366.019 352.602 364.487Z" fill="#007336"/>
<path d="M329.798 358.87C328.22 357.337 326.68 358.983 326.375 359.63C326.087 360.242 325.237 360.59 325.968 363.021C326.331 363.579 327.495 364.74 329.245 364.931C331.431 365.17 330.785 363.286 331.09 362.639C331.394 361.992 331.376 360.403 329.798 358.87Z" fill="#007336"/>
<path d="M345.179 351.282C343.602 349.75 342.061 351.395 341.757 352.042C341.468 352.655 340.619 353.002 341.349 355.434C341.713 355.991 342.877 357.153 344.626 357.344C346.812 357.582 346.167 355.698 346.471 355.051C346.776 354.404 346.757 352.815 345.179 351.282Z" fill="#007336"/>
</svg>
