<svg width="66" height="79" viewBox="0 0 66 79" fill="none" xmlns="http://www.w3.org/2000/svg">
<path d="M12.1368 78.7853C11.0953 78.2898 10.6586 77.4776 10.7447 76.3158C10.8083 75.4481 10.7468 74.5721 10.7632 73.7023C10.7693 73.3548 10.7304 73.1533 10.3039 73.0916C9.33829 72.9518 8.75808 72.3452 8.59612 71.3849C8.03231 68.06 7.47876 64.7309 6.92931 61.4039C6.15023 56.6869 5.37321 51.9698 4.61463 47.2528C4.53468 46.7511 4.2456 46.7613 3.87041 46.7202C2.1872 46.5393 0.94888 45.7065 0.313318 44.1006C-0.28739 42.5831 -0.00856289 41.1828 1.01449 39.9428C1.76896 39.0278 2.78176 38.5487 3.95242 38.5137C4.49777 38.4973 4.53878 38.3184 4.48342 37.8537C3.92372 33.0729 5.13128 28.7795 8.09382 24.996C10.1481 22.3722 12.7847 20.5442 15.9133 19.4338C16.3438 19.2817 16.5365 19.1028 16.6493 18.6257C18.31 11.616 23.948 6.31704 31.0191 5.44725C38.0472 4.58362 43.6299 7.24852 47.72 13.043C47.8636 13.2466 47.9907 13.4625 48.128 13.6763C48.3925 13.5447 48.4192 13.2959 48.5114 13.0985C50.0019 9.96687 51.4207 6.7982 52.9911 3.70971C54.3381 1.05921 56.6241 -0.227998 59.5825 0.0331449C62.3339 0.275782 64.261 1.80358 65.2533 4.40884C66.0099 6.39723 65.8069 8.35067 64.71 10.1519C63.8469 11.5687 62.8649 12.9155 61.9095 14.2747C61.4584 14.9183 60.8167 15.0417 60.2509 14.6572C59.6624 14.2562 59.5599 13.6003 60.0212 12.9114C60.8331 11.7003 61.6819 10.5159 62.4897 9.30271C64.3923 6.44864 62.9387 2.99003 59.5845 2.36082C57.7619 2.01948 55.8511 3.08873 54.9408 4.99693C53.3929 8.24168 51.9086 11.5193 50.2992 14.7333C49.719 15.893 49.4791 16.9211 49.9691 18.1857C50.3628 19.1974 50.4899 20.3221 50.4796 21.4284C50.4755 21.8129 50.6026 22.0309 50.9676 22.1748C51.3202 22.3146 51.6441 22.5264 51.9742 22.7177C52.905 23.2585 52.9029 23.2585 53.5344 22.3393C54.6046 20.7807 55.6748 19.22 56.7491 17.6634C57.1059 17.1452 57.5364 16.7751 58.2253 17.0383C59.0392 17.3488 59.234 18.1528 58.6681 18.9876C57.4769 20.7437 56.2796 22.4956 55.0577 24.2311C54.8055 24.5888 54.7871 24.7677 55.1254 25.0988C58.7337 28.6068 60.5666 32.8755 60.4825 37.9359C60.4743 38.376 60.5932 38.4644 61.0156 38.5117C63.279 38.7626 64.8905 40.5186 64.8638 42.6427C64.8372 44.7668 63.2667 46.4673 61.032 46.7058C60.5194 46.7614 60.3308 46.8518 60.2406 47.4173C59.3098 53.2467 58.336 59.07 57.3703 64.8933C57.0156 67.0359 56.6712 69.1806 56.296 71.3212C56.132 72.2588 55.5949 72.9189 54.6231 73.0813C54.2274 73.1471 54.1187 73.2931 54.129 73.6694C54.1515 74.5145 54.0962 75.3637 54.1454 76.2068C54.2151 77.3624 53.8153 78.2302 52.7861 78.7833C39.2404 78.7853 25.6886 78.7853 12.1368 78.7853Z" fill="#007336"/>
<path d="M32.4401 40.8477C41.6434 40.8477 50.8468 40.8477 60.0501 40.8497C60.3822 40.8497 60.7164 40.8538 61.0424 40.9032C61.9424 41.0368 62.5124 41.7503 62.4857 42.6798C62.4611 43.5804 61.8194 44.2651 60.9112 44.3412C60.6057 44.3659 60.2982 44.3597 59.9907 44.3597C48.1549 44.3597 36.317 44.3597 24.4812 44.3618C24.225 44.3618 23.9666 44.3453 23.7165 44.3823C23.0481 44.4851 22.6278 44.8923 22.6381 45.5667C22.6463 46.2412 23.085 46.6319 23.7473 46.7264C23.9974 46.7614 24.2578 46.7429 24.514 46.7429C35.378 46.7429 46.2441 46.747 57.1081 46.7306C57.7457 46.7306 58.0204 46.7511 57.881 47.5551C57.0999 52.011 56.3864 56.4771 55.6586 60.9433C55.5848 61.3957 55.4495 61.6136 54.9041 61.6095C50.9411 61.5787 46.9801 61.5848 43.0171 61.6033C42.4799 61.6054 42.3692 61.5375 42.4758 60.9474C43.464 55.4058 40.1775 50.5161 34.7035 49.3194C29.5678 48.1946 24.0527 51.9493 23.1835 57.1475C22.96 58.4799 22.9518 59.8021 23.245 61.114C23.3331 61.5088 23.288 61.5992 22.8923 61.5992C18.5213 61.591 14.1482 61.591 9.77721 61.6013C9.41842 61.6013 9.28106 61.4635 9.22775 61.1284C8.56349 57.0426 7.89102 52.9569 7.22266 48.8711C7.14885 48.4167 7.12835 47.9479 6.99509 47.5119C6.81057 46.9074 6.93768 46.7223 7.5999 46.7285C11.0258 46.7594 14.4517 46.7429 17.8775 46.7429C18.1072 46.7429 18.3429 46.7573 18.5644 46.7141C19.1917 46.5928 19.5874 46.1898 19.5874 45.5544C19.5874 44.9211 19.2081 44.5078 18.5685 44.3967C18.3183 44.3535 18.06 44.3618 17.8058 44.3618C13.4081 44.3597 9.01248 44.3618 4.61481 44.3597C4.23347 44.3597 3.84393 44.3926 3.47695 44.2569C2.78603 43.9999 2.28988 43.2206 2.34729 42.505C2.41495 41.6722 3.0095 41.0183 3.83778 40.8991C4.16581 40.8518 4.5 40.8477 4.83213 40.8477C14.0334 40.8477 23.2368 40.8477 32.4401 40.8477Z" fill="white"/>
<path d="M32.3663 76.4782C26.1809 76.4782 19.9954 76.4721 13.81 76.4906C13.2441 76.4926 12.9899 76.398 13.0473 75.7585C13.1109 75.0471 13.076 74.3233 13.0555 73.6057C13.0473 73.2787 13.1478 73.1286 13.486 73.1595C13.6644 73.1759 13.8428 73.1615 14.0232 73.1615C23.327 73.1615 32.6308 73.1615 41.9346 73.1595C42.2155 73.1595 42.4963 73.1533 42.7752 73.1266C43.4435 73.0628 43.7695 72.633 43.8331 72.0121C43.8905 71.4384 43.3861 70.8955 42.7629 70.8133C42.5373 70.7824 42.3036 70.803 42.074 70.803C31.9788 70.803 21.8816 70.7968 11.7864 70.8153C11.0996 70.8174 10.7757 70.731 10.6834 69.9168C10.4784 68.0908 10.1319 66.2793 9.80183 64.4698C9.71777 64.0092 9.87564 63.9722 10.2488 63.9722C14.7982 63.9804 19.3476 63.9804 23.8969 63.9701C24.2496 63.9701 24.4259 64.1038 24.6207 64.3875C28.7231 70.3794 36.9793 70.3897 41.0612 64.406C41.2765 64.0894 41.4794 63.968 41.8526 63.9701C46.0944 63.9824 50.3384 63.9845 54.5802 63.968C55.0313 63.966 55.1543 64.0852 55.0743 64.5335C54.7483 66.3965 54.4388 68.2615 54.1517 70.1306C54.0718 70.6467 53.8913 70.8338 53.3275 70.8174C51.6669 70.768 50.0062 70.7968 48.3435 70.8009C47.4312 70.803 46.853 71.2718 46.8592 71.9874C46.8653 72.6824 47.3984 73.1389 48.282 73.1553C49.2538 73.1738 50.2256 73.178 51.1953 73.1512C51.6136 73.141 51.794 73.2417 51.7735 73.7023C51.7345 74.5968 52.0769 75.7462 51.6423 76.3158C51.2302 76.8545 50.0144 76.4659 49.1554 76.468C43.5604 76.4844 37.9634 76.4782 32.3663 76.4782Z" fill="white"/>
<path d="M55.4617 38.4891C54.9758 38.4891 54.4899 38.487 54.0061 38.4891C53.4074 38.4911 52.7821 38.6536 52.5771 37.755C52.4889 37.3643 52.0092 37.208 51.5561 37.2389C51.064 37.2718 50.6909 37.535 50.5802 37.9709C50.4695 38.4048 50.2972 38.4994 49.8729 38.4994C44.8642 38.4829 39.8556 38.487 34.847 38.4911C34.5148 38.4911 34.2565 38.5405 34.1663 38.0408C34.0761 37.5432 33.6517 37.2409 33.0879 37.2368C32.5241 37.2327 32.1058 37.5247 31.9972 38.0244C31.8988 38.4808 31.6917 38.5055 31.3288 38.4932C30.6133 38.4726 29.8957 38.4603 29.1823 38.4952C28.7148 38.5179 28.5385 38.4212 28.5241 37.8886C28.3478 30.4574 33.8424 23.9329 41.1759 22.8965C49.2209 21.7615 56.4847 27.0152 57.9732 35.0551C58.1495 36.0113 58.1885 36.986 58.1823 37.9627C58.1803 38.4212 58.0183 38.5117 57.6062 38.4952C56.8927 38.4665 56.1772 38.4891 55.4617 38.4891Z" fill="white"/>
<path d="M16.5121 38.4891C13.6254 38.4891 10.7367 38.45 7.85002 38.5137C7.02994 38.5322 6.82492 38.23 6.76957 37.5144C6.28367 31.3272 8.51429 26.4251 13.7484 23.0693C19.1712 19.5922 26.3018 20.2173 31.1854 24.4223C31.6385 24.813 31.6487 25.0124 31.2161 25.4566C27.8415 28.9049 26.1378 33.0524 26.2157 37.8969C26.226 38.4788 25.9984 38.4973 25.5596 38.4973C22.5438 38.4829 19.528 38.4891 16.5121 38.4891Z" fill="white"/>
<path d="M32.8973 51.5174C37.0407 51.5401 40.3989 54.9329 40.3641 59.0598C40.3292 63.2031 36.9526 66.5301 32.803 66.5095C28.6636 66.4869 25.3013 63.0879 25.3382 58.9652C25.373 54.8198 28.7477 51.4948 32.8973 51.5174Z" fill="white"/>
<path d="M40.5486 9.80031C40.4031 10.226 40.237 10.7071 40.0771 11.1883C38.9618 14.5441 37.8383 17.8978 36.7414 21.2618C36.6184 21.6381 36.438 21.8623 36.0813 22.0165C35.3329 22.3393 34.6195 22.7382 33.9552 23.2112C33.6805 23.4065 33.5021 23.4065 33.2438 23.1577C32.2289 22.1789 31.0972 21.3461 29.861 20.6717C29.5616 20.5092 29.537 20.3468 29.6293 20.0713C30.964 16.0595 32.2966 12.0478 33.6251 8.03194C33.7194 7.74818 33.8629 7.6392 34.1787 7.65359C36.3519 7.74612 38.3877 8.32187 40.2985 9.35822C40.5732 9.51038 40.563 9.53094 40.5486 9.80031Z" fill="white"/>
<path d="M19.0173 18.5867C20.9281 12.8086 24.7066 9.19993 30.5886 7.8716C31.1463 7.74616 31.2242 7.8901 31.0397 8.43706C29.8526 11.9327 28.6984 15.4427 27.54 18.9486C27.4436 19.2406 27.4293 19.5552 26.9598 19.3948C24.4832 18.5517 21.9471 18.2803 19.3495 18.6257C19.2777 18.634 19.1998 18.6093 19.0173 18.5867Z" fill="white"/>
<path d="M42.6521 10.886C45.834 13.5694 47.6403 16.8738 48.1405 21.0356C46.648 20.6594 45.2046 20.4311 43.7387 20.3797C42.2605 20.3262 40.809 20.5812 39.3513 20.7971C40.4543 17.4824 41.5389 14.2253 42.6521 10.886Z" fill="white"/>
<path d="M37.1554 34.7734C36.5547 34.7632 35.7161 34.4424 35.0191 33.7844C34.4881 33.2827 34.4368 32.6555 34.853 32.1435C35.2713 31.6294 35.8966 31.5349 36.4809 31.9934C37.1984 32.5589 37.8299 32.5465 38.5372 31.9687C39.0867 31.5205 39.753 31.6459 40.161 32.1723C40.5177 32.6288 40.448 33.3094 39.999 33.77C39.4209 34.3622 38.4101 34.7693 37.1554 34.7734Z" fill="#007336"/>
<path d="M47.0969 30.8193C46.1435 30.8378 45.305 30.5191 44.6038 29.8652C44.1015 29.3964 44.0298 28.6993 44.4111 28.2161C44.7966 27.7267 45.4957 27.6157 46.0431 28.0495C46.7565 28.615 47.3901 28.6171 48.0994 28.0413C48.6263 27.6136 49.1983 27.6773 49.6719 28.175C50.1291 28.6561 50.0922 29.3039 49.5797 29.8117C48.897 30.4862 48.0646 30.8173 47.0969 30.8193Z" fill="#007336"/>
<path d="M40.8255 26.824C40.8378 27.482 40.3539 27.992 39.704 28.0064C39.05 28.0208 38.5395 27.5334 38.5272 26.8816C38.5128 26.2236 38.9967 25.7137 39.6486 25.7013C40.3047 25.6849 40.8111 26.1702 40.8255 26.824Z" fill="#007336"/>
<path d="M54.6314 31.469C54.6314 32.1249 54.1332 32.6226 53.4792 32.6226C52.8252 32.6226 52.3311 32.1229 52.3311 31.4669C52.3311 30.811 52.8293 30.3154 53.4833 30.3154C54.1373 30.3154 54.6334 30.813 54.6314 31.469Z" fill="#007336"/>
<path d="M45.7828 36.1614C45.1329 36.147 44.6491 35.6371 44.6614 34.9791C44.6757 34.3272 45.1842 33.8419 45.8402 33.8563C46.4922 33.8707 46.974 34.3807 46.9596 35.0387C46.9473 35.6905 46.4389 36.1758 45.7828 36.1614Z" fill="#007336"/>
<path d="M26.0187 24.8232C26.3488 24.8376 26.683 24.8253 27.009 24.8726C27.622 24.961 27.9767 25.3579 28.0095 25.9562C28.0423 26.5526 27.7286 27.007 27.132 27.1386C26.4062 27.2969 25.6559 27.2805 24.9301 27.153C24.3417 27.0502 23.9829 26.606 23.9972 26.0097C24.0116 25.3805 24.3847 24.961 25.0264 24.8726C25.3504 24.8274 25.6866 24.8644 26.0187 24.8644C26.0187 24.8479 26.0187 24.8356 26.0187 24.8232Z" fill="#007336"/>
<path d="M18.1071 26.2482C18.4126 26.2482 18.7221 26.2153 19.0215 26.2544C19.6345 26.3366 19.9933 26.7314 20.0302 27.3277C20.0671 27.9241 19.7616 28.3888 19.1629 28.5142C18.4146 28.6725 17.6417 28.6746 16.8913 28.5101C16.2947 28.3785 15.9769 27.9179 16.02 27.3257C16.061 26.7376 16.4259 26.3325 17.0369 26.2564C17.3895 26.2133 17.7504 26.2482 18.1071 26.2482Z" fill="#007336"/>
<path d="M21.4079 34.7776C21.1024 34.7776 20.7949 34.7981 20.4894 34.7734C19.8559 34.7241 19.3516 34.2141 19.4008 33.6199C19.452 33.001 19.7842 32.5383 20.4382 32.4869C21.0963 32.4355 21.7667 32.4293 22.4248 32.491C23.0747 32.5506 23.4356 33.0256 23.4274 33.6446C23.4192 34.2573 23.0686 34.7076 22.4023 34.7714C22.0722 34.8043 21.738 34.7776 21.4079 34.7776Z" fill="#007336"/>
<path d="M12.016 32.3019C12.3215 32.3019 12.6291 32.2834 12.9325 32.306C13.5906 32.3553 13.9453 32.7357 13.9904 33.3834C14.0375 34.0497 13.6706 34.4959 13.0575 34.5802C12.383 34.6727 11.6819 34.648 10.9991 34.5946C10.3779 34.5452 9.93099 33.9612 10.0048 33.3608C10.0807 32.7296 10.4374 32.3389 11.0996 32.3039C11.4051 32.2875 11.7106 32.3019 12.016 32.3019Z" fill="#007336"/>
<path d="M32.8172 58.4408C31.8741 58.4408 30.929 58.4532 29.9859 58.4367C29.0469 58.4203 28.5384 57.9699 28.5569 57.2091C28.5733 56.4792 29.0674 56.0638 29.9756 56.0597C31.8885 56.0494 33.8033 56.0494 35.7162 56.0597C36.6285 56.0638 37.1226 56.473 37.1452 57.1989C37.1698 57.9617 36.6613 58.4203 35.7264 58.4367C34.7546 58.4532 33.7849 58.4408 32.8172 58.4408Z" fill="#007336"/>
<path d="M32.8315 60.3655C33.3666 60.3655 33.9038 60.347 34.4369 60.3717C35.1811 60.4046 35.7018 60.896 35.7121 61.5334C35.7223 62.1647 35.2077 62.7096 34.4717 62.7342C33.3769 62.7713 32.278 62.7754 31.1832 62.7301C30.4574 62.7013 29.9469 62.1194 29.9838 61.4923C30.0207 60.8795 30.5189 60.4251 31.2221 60.3676C31.2734 60.3634 31.3246 60.3655 31.3759 60.3655C31.8618 60.3655 32.3456 60.3655 32.8315 60.3655Z" fill="#007336"/>
</svg>
