<svg width="60" height="79" viewBox="0 0 60 79" fill="none" xmlns="http://www.w3.org/2000/svg">
<path d="M30.5467 0C31.947 0.429756 33.1135 1.3016 34.3375 2.05625C34.9689 2.44693 35.5943 2.53535 36.3057 2.40375C37.2324 2.23308 38.1672 2.09737 39.1042 1.99045C40.7464 1.80127 42.0421 2.4346 43.0242 3.74237C43.5921 4.49907 44.1477 5.26605 44.691 6.04125C45.0334 6.52858 45.4782 6.81235 46.0584 6.93778C46.9277 7.12695 47.7909 7.34286 48.654 7.55876C50.45 8.00908 51.5858 9.12562 52.0184 10.9433C52.0594 11.1161 52.1106 11.2888 52.1537 11.4615C53.0537 15.0497 52.2849 13.9948 55.354 16.2012C57.0537 17.4246 57.8983 18.9421 57.5375 21.056C57.4042 21.8373 57.3161 22.6269 57.1521 23.4021C57.0127 24.0704 57.107 24.6585 57.4719 25.2301C57.9393 25.9622 58.376 26.7127 58.8312 27.4529C59.8235 29.0712 59.8153 30.6833 58.8209 32.2954C58.3781 33.013 57.9639 33.7471 57.5047 34.4545C57.1193 35.0467 57.0167 35.6533 57.1562 36.3524C57.3366 37.253 57.4432 38.1701 57.5682 39.081C57.7999 40.7898 57.1623 42.1346 55.8174 43.1627C55.067 43.7364 54.3043 44.2977 53.5273 44.8344C53.0312 45.1757 52.7667 45.6363 52.6375 46.208C52.4694 46.9544 52.2562 47.6926 52.1106 48.4431C51.6965 50.5631 50.4315 51.8441 48.3362 52.2451C47.6925 52.3685 47.7027 52.5638 47.9323 53.0758C50.6509 59.1233 53.3489 65.1789 56.0614 71.2284C56.3156 71.7959 56.4898 72.3408 56.0675 72.8837C55.6513 73.4183 55.0834 73.4121 54.4663 73.3319C52.5453 73.077 50.616 72.8693 48.695 72.6143C48.2009 72.5485 47.9118 72.6883 47.631 73.1098C46.5505 74.7261 45.427 76.3114 44.3219 77.9071C43.9775 78.4047 43.6064 78.8571 42.9093 78.7789C42.2184 78.7008 41.9581 78.1929 41.71 77.6336C38.9607 71.4649 36.1929 65.3023 33.4579 59.1253C33.1996 58.5393 33.0049 58.4406 32.4677 58.8189C30.7066 60.0588 28.8983 60.0712 27.1351 58.8292C26.5652 58.4262 26.4094 58.5989 26.1613 59.1582C23.4448 65.2899 20.7016 71.4093 17.9646 77.5308C17.9441 77.5781 17.9216 77.6233 17.9031 77.6706C17.6735 78.2381 17.3762 78.7275 16.6791 78.7789C16.0231 78.8262 15.6684 78.4252 15.3342 77.9379C14.2066 76.295 13.0441 74.6726 11.9268 73.0214C11.691 72.6739 11.4552 72.5588 11.0514 72.6102C9.10161 72.8569 7.14778 73.0646 5.20214 73.3216C4.55838 73.4059 3.98023 73.4224 3.53738 72.8549C3.10274 72.2935 3.32006 71.7507 3.56813 71.2017C6.25594 65.1995 8.9335 59.1911 11.6418 53.1992C11.9268 52.57 11.8776 52.3397 11.1682 52.2102C9.11392 51.8318 7.79564 50.5837 7.51886 48.513C7.20723 46.1833 6.11858 44.5362 4.08068 43.3642C2.22731 42.299 1.68196 40.543 2.05714 38.4744C2.1986 37.6951 2.32366 36.9117 2.45898 36.1324C2.55534 35.5772 2.44873 35.0693 2.15145 34.5922C1.66555 33.8109 1.18786 33.0254 0.712213 32.2378C-0.230877 30.671 -0.23908 29.0979 0.69786 27.5249C0.853675 27.2617 1.01769 27.0026 1.17555 26.7394C2.96127 23.7723 2.63735 24.9402 2.09404 21.5207C1.73731 19.2835 2.28266 17.6076 4.15244 16.2567C7.28924 13.9907 6.55732 15.1258 7.41635 11.3916C7.9453 9.09067 9.28408 7.75616 11.5803 7.41483C13.4009 7.1434 14.9057 6.4998 15.8345 4.74787C17.2204 2.13233 19.4736 1.47433 22.2044 2.23514C23.6621 2.64228 24.9394 2.43254 26.1551 1.51751C27.0224 0.863624 27.9778 0.339281 29.0234 0.00616874C29.5257 0 30.0362 0 30.5467 0Z" fill="#007336"/>
<path d="M20.0209 55.2883C19.3628 55.2904 18.8974 54.9696 18.5304 54.4659C17.9871 53.7215 17.4274 52.9895 16.9108 52.2287C16.2096 51.2005 15.244 50.6022 14.0528 50.3246C13.2102 50.1292 12.3778 49.8907 11.5311 49.718C10.6474 49.537 10.1656 49.0189 9.97496 48.1491C9.76174 47.1785 9.50547 46.2162 9.25945 45.2518C9.01137 44.271 8.46191 43.4937 7.64594 42.8995C6.94272 42.3875 6.26615 41.8384 5.53833 41.3676C4.59524 40.7589 4.29591 39.9673 4.53989 38.8733C4.73876 37.9768 4.82487 37.0556 4.94788 36.1426C5.08319 35.1392 4.85562 34.2139 4.32872 33.3544C3.83462 32.5483 3.35488 31.7341 2.85053 30.9342C2.39128 30.2083 2.38923 29.503 2.85873 28.7833C3.15191 28.333 3.38153 27.8375 3.70956 27.418C5.01554 25.7504 5.28001 23.873 4.70801 21.9052C4.16265 20.034 4.56654 18.6646 6.35431 17.766C6.7828 17.5521 7.13749 17.1964 7.53523 16.9167C8.50087 16.2402 9.08928 15.3149 9.36196 14.1758C9.57108 13.308 9.79864 12.4423 9.97906 11.5684C10.1595 10.6884 10.672 10.1866 11.5372 9.99542C12.4065 9.80419 13.2676 9.578 14.1348 9.37649C15.3034 9.10506 16.2301 8.48613 16.9169 7.49296C17.4254 6.75683 17.981 6.05154 18.4915 5.31746C19.0061 4.57515 19.6888 4.34691 20.556 4.50113C21.4848 4.66563 22.4217 4.78283 23.3505 4.94116C24.4084 5.12211 25.374 4.89181 26.2781 4.34485C27.1085 3.84313 27.9347 3.33935 28.7589 2.8294C29.4293 2.41198 30.0976 2.39347 30.7742 2.80884C31.4918 3.24887 32.2278 3.66423 32.9228 4.13717C34.1632 4.98229 35.4979 5.15913 36.9392 4.8548C37.6875 4.69647 38.4461 4.58749 39.2005 4.4744C39.9448 4.36336 40.5578 4.60188 41.0068 5.22287C41.5767 6.01041 42.1467 6.79795 42.7146 7.5855C43.4034 8.53959 44.3199 9.13179 45.468 9.38266C46.3373 9.57183 47.2004 9.79802 48.0676 10.0016C48.8939 10.1949 49.4023 10.6863 49.5848 11.5294C49.7734 12.4012 49.9989 13.2648 50.1998 14.1367C50.4705 15.3067 51.0691 16.2464 52.0614 16.9394C52.7749 17.437 53.4473 17.9901 54.1711 18.4692C55.0137 19.0264 55.2269 19.779 55.0527 20.729C54.8825 21.6584 54.7574 22.5981 54.6221 23.5337C54.4724 24.5639 54.7062 25.5098 55.2515 26.3899C55.7354 27.1712 56.1905 27.9711 56.6867 28.7443C57.1685 29.4927 57.189 30.2145 56.6969 30.9609C56.4017 31.4092 56.1823 31.9109 55.8522 32.3283C54.534 33.9939 54.3617 35.8527 54.8394 37.8452C54.946 38.2914 55.0116 38.75 55.0834 39.2023C55.2167 40.0392 54.9563 40.7055 54.249 41.201C53.4965 41.7295 52.7687 42.2929 52.0143 42.8193C51.0445 43.4978 50.4705 44.4273 50.1998 45.5664C49.9948 46.4362 49.7734 47.2998 49.5827 48.1737C49.4003 49.0086 48.9246 49.5247 48.0799 49.7118C47.2353 49.8989 46.4008 50.1292 45.5561 50.3163C44.3609 50.5816 43.387 51.1656 42.6797 52.1896C42.2 52.8846 41.6485 53.5303 41.1995 54.2438C40.6234 55.1588 39.8299 55.3809 38.8274 55.202C37.8741 55.0313 36.9166 54.8874 35.9551 54.7661C34.9546 54.6386 34.0361 54.8977 33.1852 55.4343C32.4308 55.9114 31.6517 56.3494 30.9054 56.8388C30.1305 57.3446 29.3985 57.3528 28.6338 56.8161C28.1971 56.5098 27.6805 56.3082 27.2663 55.9792C25.62 54.6715 23.7912 54.5317 21.8313 55.0005C21.2387 55.1424 20.6237 55.1958 20.0209 55.2883Z" fill="white"/>
<path d="M45.2425 53.1848C47.8237 58.9567 50.4008 64.7224 53.0271 70.5971C51.5305 70.4203 50.1199 70.3175 48.7361 70.0687C47.4403 69.8342 46.5055 70.0502 45.8002 71.3086C45.097 72.5649 44.1703 73.6959 43.2702 74.9851C40.607 69.0282 37.991 63.1761 35.3196 57.1966C36.6051 57.3878 37.7798 57.7106 38.9484 57.6942C40.1027 57.6798 40.4635 58.274 40.8428 59.1706C41.9069 61.6792 43.055 64.1528 44.1621 66.645C44.3199 67.0028 44.4901 67.3338 44.8571 67.523C45.3799 67.7924 45.8617 67.6978 46.2697 67.3195C46.7392 66.8835 46.7699 66.3489 46.5137 65.7752C45.7653 64.0994 45.0211 62.4215 44.2748 60.7456C43.7356 59.5345 43.1923 58.3254 42.6531 57.1143C42.5629 56.9128 42.4112 56.7298 42.6019 56.483C43.4096 55.4282 44.201 54.363 45.0047 53.3041C45.0457 53.2527 45.1359 53.2362 45.2425 53.1848Z" fill="white"/>
<path d="M24.2547 57.2829C21.6181 63.1844 19.0062 69.0262 16.3471 74.9769C15.7915 74.1873 15.2728 73.4533 14.7582 72.7171C14.2743 72.0262 13.7864 71.3374 13.3148 70.6362C12.9643 70.118 12.505 69.9042 11.8776 69.9803C10.1575 70.19 8.43331 70.3792 6.58813 70.591C9.18984 64.7677 11.7669 58.9999 14.4055 53.0944C15.0534 53.9744 15.568 54.8381 16.2425 55.5434C17.0503 56.3885 17.0298 57.1225 16.5316 58.1445C15.3363 60.5935 14.2825 63.1124 13.1775 65.6066C12.7695 66.5278 12.9561 67.2146 13.6859 67.5477C14.4219 67.8829 15.0473 67.5642 15.4716 66.6142C16.7038 63.8691 17.9421 61.1261 19.1456 58.3686C19.3383 57.9265 19.5372 57.8155 20.0251 57.7826C21.165 57.7045 22.2968 57.4803 23.4305 57.3035C23.6868 57.2624 23.9349 57.2027 24.2547 57.2829Z" fill="white"/>
<path d="M44.3713 26.7744C44.4082 27.4406 44.0473 28.002 43.5184 28.4914C41.8844 30.0048 40.2627 31.5305 38.6184 33.0316C38.276 33.3441 38.1838 33.6238 38.2863 34.0926C38.7455 36.2146 39.1535 38.3449 39.5738 40.4752C39.7747 41.4971 39.6476 42.4245 38.7373 43.0846C37.8045 43.7611 36.8921 43.5863 35.9532 43.0414C34.1018 41.968 32.2177 40.9481 30.3664 39.8748C29.9338 39.6239 29.616 39.6403 29.1896 39.8871C27.3382 40.9605 25.4582 41.9845 23.6028 43.0496C22.6925 43.5719 21.7986 43.757 20.8781 43.1216C19.9268 42.4636 19.7771 41.5218 19.9883 40.4649C20.4209 38.312 20.8432 36.1571 21.2984 34.0103C21.3845 33.6011 21.2902 33.3482 20.9929 33.0768C19.3691 31.5901 17.7761 30.0706 16.1442 28.5942C15.3466 27.8745 14.9571 27.0417 15.2954 25.9992C15.6214 24.9937 16.3738 24.5372 17.4276 24.4303C19.5085 24.2205 21.5792 23.9142 23.6602 23.7065C24.349 23.6366 24.7304 23.3693 25.0092 22.7257C25.8498 20.7846 26.7683 18.8764 27.6355 16.9476C28.0517 16.0223 28.7303 15.4445 29.7431 15.4321C30.7908 15.4178 31.494 15.9976 31.9245 16.9517C32.7938 18.8825 33.7225 20.7866 34.5508 22.7339C34.8502 23.4371 35.2889 23.6386 35.9839 23.7085C38.1407 23.9286 40.2934 24.1938 42.4441 24.4714C43.5963 24.6195 44.3651 25.5386 44.3713 26.7744Z" fill="#007336"/>
<path d="M7.36917 30.2617C7.35687 18.9956 15.0308 9.72189 25.7123 7.74378C30.4954 6.85754 35.1043 7.52582 39.4917 9.64581C40.4204 10.0961 40.7218 10.7356 40.3692 11.4574C40.0083 12.1935 39.3338 12.3498 38.4071 11.9097C26.4565 6.21599 12.5521 13.2586 10.1841 26.2644C9.17949 31.7854 10.3645 36.8808 13.5977 41.4806C13.7309 41.6698 13.8765 41.8487 14.0016 42.042C14.4547 42.7411 14.3501 43.432 13.735 43.8618C13.1651 44.2607 12.4721 44.1455 11.9883 43.5163C9.54033 40.3291 8.06419 36.7369 7.53524 32.7477C7.40608 31.7772 7.36507 30.8087 7.36917 30.2617Z" fill="#007336"/>
<path d="M52.1107 29.246C52.3177 38.1619 47.3255 46.5966 38.8726 50.2855C31.1474 53.6578 23.7175 52.8394 16.7263 48.1141C16.5992 48.0278 16.4783 47.9332 16.3573 47.8406C15.4819 47.1724 15.2789 46.4938 15.7587 45.842C16.2364 45.1922 16.9888 45.1757 17.8396 45.8111C19.1743 46.8084 20.6094 47.6247 22.145 48.2683C33.8086 53.1458 47.1636 45.7618 49.2917 33.2701C50.0154 29.026 49.4393 24.9752 47.5777 21.1033C47.3173 20.5604 47.2066 20.0402 47.6043 19.5241C47.916 19.119 48.3424 19.0038 48.8324 19.0758C49.3839 19.1581 49.6381 19.5631 49.8534 20.0135C51.2516 22.9313 52.0164 26.0054 52.1107 29.246Z" fill="#007336"/>
<path d="M46.8169 15.6995C46.7944 16.3287 46.575 16.7009 46.126 16.9353C45.6422 17.1861 45.1666 17.143 44.7811 16.7831C44.0738 16.1231 43.3644 15.4548 42.7309 14.7269C42.3004 14.2334 42.3352 13.6206 42.7781 13.1189C43.1984 12.6439 43.7929 12.5185 44.2952 12.8783C45.2076 13.5301 45.9825 14.3485 46.6611 15.2471C46.7862 15.4095 46.8251 15.6152 46.8169 15.6995Z" fill="#007336"/>
<path d="M18.0139 26.8937C19.2871 26.7374 20.4229 26.5976 21.5567 26.4619C22.8749 26.3035 24.1912 26.1514 25.5094 25.9951C26.145 25.9211 26.473 25.5057 26.7231 24.9588C27.6293 22.9621 28.5519 20.9717 29.4745 18.9812C29.5545 18.8065 29.577 18.5885 29.8374 18.4425C30.7272 20.3672 31.7215 22.2342 32.4534 24.2C32.9947 25.6517 33.9337 26.0732 35.336 26.1699C37.2427 26.3015 39.1391 26.5894 41.0397 26.8155C41.1627 26.8299 41.2795 26.8855 41.4846 26.9492C39.8649 28.4544 38.3396 29.9657 36.7097 31.3496C35.7563 32.1577 35.418 32.9617 35.7358 34.2139C36.232 36.1653 36.5477 38.164 36.9413 40.1421C36.97 40.2901 37.0336 40.4382 36.9393 40.5965C36.6625 40.6376 36.478 40.432 36.2648 40.3148C34.5734 39.3731 32.8512 38.4786 31.209 37.4566C30.2146 36.8377 29.3987 36.8192 28.392 37.4381C26.5284 38.5814 24.5889 39.6013 22.5162 40.7651C22.7314 39.6568 22.9118 38.7027 23.1025 37.7486C23.3752 36.3709 23.6479 34.9932 23.9328 33.6176C24.0886 32.8712 23.8836 32.2996 23.3014 31.7773C21.5546 30.2042 19.8468 28.5901 18.0139 26.8937Z" fill="white"/>
</svg>
