<svg width="37" height="37" viewBox="0 0 37 37" fill="none" xmlns="http://www.w3.org/2000/svg">
<circle cx="18.5" cy="18.5" r="18.5" fill="white"/>
<path d="M18 8C15.6139 8.00283 13.3264 8.95571 11.6392 10.6496C9.95194 12.3435 9.00282 14.6402 9.00001 17.0357C8.99715 18.9934 9.63408 20.8979 10.8131 22.4571C10.8131 22.4571 11.0586 22.7816 11.0986 22.8284L18 31L24.9046 22.8243C24.9406 22.7808 25.1869 22.4571 25.1869 22.4571L25.1877 22.4547C26.3661 20.8961 27.0028 18.9925 27 17.0357C26.9972 14.6402 26.0481 12.3435 24.3608 10.6496C22.6736 8.95571 20.3861 8.00283 18 8ZM18 20.3214C17.3527 20.3214 16.72 20.1287 16.1818 19.7677C15.6436 19.4066 15.2241 18.8935 14.9764 18.2931C14.7287 17.6927 14.6639 17.0321 14.7902 16.3947C14.9164 15.7573 15.2281 15.1719 15.6858 14.7124C16.1435 14.2528 16.7267 13.9399 17.3615 13.8131C17.9964 13.6864 18.6544 13.7514 19.2524 14.0001C19.8504 14.2488 20.3616 14.6699 20.7212 15.2103C21.0808 15.7506 21.2727 16.3859 21.2727 17.0357C21.2716 17.9068 20.9265 18.7419 20.313 19.3579C19.6994 19.9738 18.8676 20.3203 18 20.3214Z" fill="#70055B"/>
</svg>
