<svg width="79" height="74" viewBox="0 0 79 74" fill="none" xmlns="http://www.w3.org/2000/svg">
<path d="M78.5773 44.6625C78.198 45.7379 78.1632 46.8873 77.8229 47.9772C77.4108 49.2952 76.931 50.5804 76.2873 51.8018C75.787 52.7538 74.9772 53.091 74.151 52.6942C73.2981 52.2829 73.0233 51.3905 73.5277 50.4179C74.971 47.6317 75.5328 44.6625 75.5184 41.5391C75.4877 34.9755 75.5123 28.412 75.5082 21.8464C75.5061 20.2404 74.6492 19.0293 73.2776 18.6489C71.3401 18.1122 69.417 19.4755 69.3924 21.5236C69.3412 25.78 69.3801 30.0364 69.3658 34.2928C69.3637 34.6342 69.5298 34.7843 69.7656 34.957C73.0131 37.3237 73.4088 41.5699 70.6082 44.4384C68.0865 47.021 65.5217 49.5605 62.9671 52.1123C62.1799 52.8998 61.2716 52.9471 60.6053 52.2706C59.9492 51.6023 60.0107 50.7017 60.8001 49.9059C63.3239 47.3623 65.862 44.8311 68.3858 42.2855C69.2653 41.3992 69.6016 40.332 69.2038 39.123C68.8225 37.9612 67.9922 37.2497 66.7887 37.0318C65.7267 36.8385 64.8287 37.2148 64.0783 37.955C63.1291 38.8886 62.186 39.8283 61.2573 40.7824C58.5551 43.5562 55.1087 44.8948 51.484 45.8736C50.6762 46.0916 49.8336 46.1882 49.0053 46.3239C46.0878 46.803 43.9515 49.1739 43.929 52.1698C43.8818 58.2214 43.9167 64.2729 43.9023 70.3224C43.9003 70.7357 44.0274 70.8282 44.4169 70.8262C48.4825 70.8138 52.546 70.8077 56.6115 70.8303C57.122 70.8323 57.1118 70.6 57.1097 70.2319C57.0995 67.9495 57.1261 65.667 57.0933 63.3867C57.081 62.5354 57.4131 61.9843 58.1594 61.6162C59.9861 60.7156 61.8006 59.7903 63.6252 58.8876C64.5683 58.4208 65.4479 58.6594 65.8682 59.4654C66.3048 60.3002 65.9686 61.1844 64.9989 61.68C63.5719 62.41 62.143 63.1358 60.6976 63.8267C60.2998 64.0179 60.1543 64.2338 60.1604 64.6821C60.185 67.1434 60.1748 69.6048 60.1707 72.0661C60.1686 73.3492 59.6335 73.8941 58.3665 73.8941C53.1262 73.8961 47.8859 73.8961 42.6435 73.8941C41.3786 73.8941 40.8434 73.3492 40.8434 72.062C40.8414 65.4717 40.8332 58.8835 40.8455 52.2932C40.8537 47.4569 44.4026 43.7146 49.1898 43.0936C52.9847 42.6021 56.4865 41.2347 59.2542 38.4012C60.2014 37.4307 61.1609 36.4704 62.1388 35.5286C63.1496 34.554 64.3736 33.9947 65.7677 33.9186C66.2905 33.8898 66.3171 33.6945 66.3151 33.2812C66.3028 29.3846 66.3008 25.4859 66.311 21.5893C66.3172 18.4926 68.5293 15.9285 71.5759 15.4597C74.52 15.0052 77.4149 16.8723 78.3375 19.7942C78.4277 20.0801 78.358 20.4132 78.5835 20.6579C78.5773 28.6608 78.5773 36.6616 78.5773 44.6625Z" fill="#007336"/>
<path d="M28.0893 73.8961C25.4569 73.8961 22.8244 73.8982 20.1899 73.894C19.0151 73.892 18.4452 73.3286 18.4431 72.1647C18.439 69.7034 18.4206 67.2421 18.4575 64.7808C18.4657 64.2297 18.2647 63.9809 17.8035 63.7547C15.4498 62.5991 13.0695 61.4887 10.7774 60.22C3.83136 56.3707 0.1656 50.4405 0.0507885 42.4623C-0.047621 35.5162 0.0261869 28.5661 0.0323375 21.6201C0.0343877 18.507 2.20965 15.9654 5.26855 15.4658C8.19623 14.9887 11.1157 16.8476 12.0383 19.7716C12.2331 20.3884 12.3089 21.0156 12.3069 21.6613C12.2987 25.4818 12.311 29.3002 12.2946 33.1207C12.2925 33.6389 12.3192 33.898 12.9875 33.935C14.3202 34.0111 15.499 34.5827 16.4667 35.5204C17.4406 36.4642 18.4103 37.4142 19.3473 38.3971C21.8342 41.0064 25.0427 42.1744 28.4255 42.966C29.8074 43.2889 31.2528 43.3279 32.5546 43.9921C35.8719 45.6885 37.7047 48.3925 37.7478 52.1246C37.8216 58.7889 37.7703 65.4552 37.7683 72.1216C37.7683 73.3409 37.2106 73.892 35.9867 73.894C33.3563 73.8982 30.7218 73.8961 28.0893 73.8961Z" fill="#007336"/>
<path d="M29.5511 0.0357331C33.5141 0.0069457 36.5217 1.83084 38.8877 4.89053C39.1522 5.23187 39.3039 5.48067 39.6832 4.94811C45.2617 -2.83067 57.0053 -1.15072 60.6198 7.97284C62.8607 13.6316 61.9668 18.8936 58.5962 23.8224C56.587 26.7608 54.0591 29.2344 51.4144 31.5785C47.8163 34.7678 44.1608 37.8953 40.5258 41.0455C39.7201 41.7446 38.9758 41.8186 38.2542 41.1833C33.6802 37.1654 28.9032 33.3777 24.5527 29.1069C21.9325 26.5366 19.4989 23.7977 18.0925 20.337C15.7901 14.6721 16.3888 9.31557 20.114 4.4361C22.3508 1.50595 25.6721 0.0501268 29.5511 0.0357331Z" fill="#007336"/>
<path d="M70.4566 58.2008C69.575 58.2049 68.9107 57.5387 68.9148 56.6545C68.9189 55.7724 69.5914 55.1144 70.475 55.1267C71.3218 55.139 71.9676 55.7868 71.9799 56.6339C71.9922 57.5181 71.334 58.1946 70.4566 58.2008Z" fill="#007336"/>
<path d="M34.7032 61.1268C34.7032 64.1515 34.6909 67.1763 34.7155 70.2031C34.7196 70.7048 34.5884 70.8343 34.0882 70.8323C30.1005 70.8117 26.1129 70.8117 22.1253 70.8323C21.6271 70.8343 21.4918 70.7068 21.4979 70.2051C21.5266 67.9494 21.4856 65.6937 21.5225 63.438C21.5369 62.5209 21.1658 61.9698 20.36 61.573C17.6251 60.222 14.8737 58.8978 12.192 57.444C6.29156 54.2445 3.25316 49.1882 3.1322 42.5054C3.00509 35.5862 3.09735 28.6628 3.1076 21.7394C3.10965 19.897 4.47918 18.4926 6.1952 18.5111C7.89072 18.5296 9.22745 19.9052 9.2336 21.7106C9.25 25.8642 9.2336 30.0179 9.24795 34.1694C9.25 34.5437 9.13109 34.7596 8.82766 34.9775C5.61704 37.297 5.21315 41.5678 7.97067 44.4013C10.5068 47.0065 13.0921 49.5604 15.6651 52.1287C16.4442 52.9059 17.3647 52.9429 18.0249 52.2541C18.6522 51.6002 18.601 50.6996 17.8506 49.9429C15.3452 47.4157 12.8317 44.8989 10.3182 42.38C9.34841 41.4074 8.97323 40.2847 9.46732 38.9564C10.1869 37.0235 12.6021 36.347 14.1971 37.6733C15.0213 38.358 15.7963 39.1188 16.4975 39.9289C19.0069 42.8262 22.279 44.3848 25.8607 45.4212C27.1811 45.8036 28.5157 46.1224 29.873 46.3547C32.6243 46.8256 34.6725 49.3651 34.6992 52.3569C34.7238 55.2809 34.7032 58.2028 34.7032 61.1268Z" fill="white"/>
<path d="M19.8516 13.8949C20.0176 10.3807 21.0858 7.35394 23.8043 5.14347C27.1831 2.39427 32.9728 1.86787 36.6202 7.02288C37.0773 7.66855 37.4833 8.34916 37.9015 9.02156C38.6519 10.2347 39.9886 10.243 40.7144 9.00716C41.6144 7.47937 42.5903 6.01738 44.0009 4.90084C47.8757 1.83292 53.7373 2.80963 56.6301 7.12364C59.361 11.195 59.402 15.5131 57.319 19.8662C55.8223 22.9896 53.4215 25.4222 50.9531 27.7704C47.355 31.192 43.5129 34.3381 39.7713 37.5993C39.5109 37.8275 39.3162 38.0126 38.9471 37.6877C34.3465 33.6266 29.4998 29.8369 25.2764 25.3564C23.1257 23.0739 21.2498 20.6003 20.3662 17.5056C20.0176 16.2904 19.9069 15.0484 19.8516 13.8949Z" fill="white"/>
</svg>
