<svg width="37" height="37" viewBox="0 0 37 37" fill="none" xmlns="http://www.w3.org/2000/svg">
<path d="M24.2813 18.5C24.2813 20.0333 23.6722 21.5038 22.588 22.588C21.5038 23.6722 20.0333 24.2813 18.5 24.2813C16.9668 24.2813 15.4963 23.6722 14.4121 22.588C13.3279 21.5038 12.7188 20.0333 12.7188 18.5C12.7188 18.1705 12.7535 17.8487 12.8132 17.5365H10.7917V25.2391C10.7917 25.7748 11.2253 26.2084 11.761 26.2084H25.241C25.4977 26.2079 25.7438 26.1055 25.9252 25.9238C26.1065 25.7421 26.2084 25.4958 26.2084 25.2391V17.5365H24.1869C24.2466 17.8487 24.2813 18.1705 24.2813 18.5ZM18.5 22.3542C19.0063 22.3541 19.5076 22.2542 19.9753 22.0604C20.4429 21.8665 20.8679 21.5825 21.2257 21.2244C21.5836 20.8663 21.8675 20.4413 22.0611 19.9735C22.2547 19.5057 22.3543 19.0044 22.3542 18.4981C22.3541 17.9918 22.2542 17.4906 22.0604 17.0229C21.8665 16.5552 21.5825 16.1303 21.2244 15.7724C20.8663 15.4145 20.4413 15.1306 19.9735 14.937C19.5057 14.7434 19.0044 14.6438 18.4981 14.6439C17.4757 14.6442 16.4952 15.0506 15.7724 15.7738C15.0496 16.4969 14.6437 17.4776 14.6439 18.5C14.6442 19.5225 15.0506 20.503 15.7738 21.2257C16.4969 21.9485 17.4776 22.3545 18.5 22.3542ZM23.125 14.4532H25.4356C25.5891 14.4532 25.7364 14.3923 25.8451 14.2839C25.9538 14.1756 26.0152 14.0285 26.0157 13.875V11.5645C26.0157 11.4106 25.9546 11.2631 25.8458 11.1543C25.737 11.0455 25.5895 10.9844 25.4356 10.9844H23.125C22.9712 10.9844 22.8237 11.0455 22.7149 11.1543C22.6061 11.2631 22.545 11.4106 22.545 11.5645V13.875C22.5469 14.193 22.8071 14.4532 23.125 14.4532ZM18.5 0C13.5935 0 8.88797 1.94911 5.41854 5.41854C1.94911 8.88797 0 13.5935 0 18.5C0 23.4066 1.94911 28.1121 5.41854 31.5815C8.88797 35.051 13.5935 37.0001 18.5 37.0001C20.9295 37.0001 23.3352 36.5216 25.5797 35.5918C27.8242 34.6621 29.8637 33.2994 31.5815 31.5815C33.2994 29.8637 34.6621 27.8242 35.5918 25.5797C36.5216 23.3352 37.0001 20.9295 37.0001 18.5C37.0001 16.0706 36.5216 13.6649 35.5918 11.4204C34.6621 9.17585 33.2994 7.13642 31.5815 5.41854C29.8637 3.70065 27.8242 2.33795 25.5797 1.40823C23.3352 0.478518 20.9295 0 18.5 0ZM28.1355 25.9945C28.1355 27.1719 27.1719 28.1355 25.9945 28.1355H11.0056C9.82815 28.1355 8.8646 27.1719 8.8646 25.9945V11.0056C8.8646 9.82815 9.82815 8.8646 11.0056 8.8646H25.9945C27.1719 8.8646 28.1355 9.82815 28.1355 11.0056V25.9945Z" fill="white"/>
</svg>
